<?xml version="1.0" encoding="UTF-8" standalone="no"?>
<!-- Created with Inkscape (http://www.inkscape.org/) -->

<svg
   version="1.1"
   id="svg1"
   width="648"
   height="151.69333"
   viewBox="0 0 648 151.69333"
   sodipodi:docname="Acadia-Logo_Horizontal-Full_Colour.eps"
   xmlns:inkscape="http://www.inkscape.org/namespaces/inkscape"
   xmlns:sodipodi="http://sodipodi.sourceforge.net/DTD/sodipodi-0.dtd"
   xmlns="http://www.w3.org/2000/svg"
   xmlns:svg="http://www.w3.org/2000/svg">
  <defs
     id="defs1" />
  <sodipodi:namedview
     id="namedview1"
     pagecolor="#ffffff"
     bordercolor="#000000"
     borderopacity="0.25"
     inkscape:showpageshadow="2"
     inkscape:pageopacity="0.0"
     inkscape:pagecheckerboard="0"
     inkscape:deskcolor="#d1d1d1">
    <inkscape:page
       x="0"
       y="0"
       inkscape:label="1"
       id="page1"
       width="648"
       height="151.69333"
       margin="0"
       bleed="0" />
  </sodipodi:namedview>
  <g
     id="g1"
     inkscape:groupmode="layer"
     inkscape:label="1">
    <g
       id="group-R5">
      <path
         id="path2"
         d="m 1570.36,684.102 h -81.35 l 81.35,231.89 81.35,-231.89 z m 210.44,-85.262 -163.2,461 h -94.47 l -163.21,-461 c -1.33,-3.715 -16.97,-58.762 -66.2,-67.449 v -51.364 h 205.32 v 51.157 c -8.4,0.796 -30.82,4.582 -42.9,21.757 -9.23,13.137 -10.22,32.653 -1.54,55.555 h 115.76 115.76 c 8.68,-22.902 7.7,-42.418 -1.54,-55.555 -12.08,-17.175 -34.5,-20.961 -42.9,-21.757 V 480.027 H 1847 v 51.364 c -49.23,8.687 -64.86,63.734 -66.2,67.449"
         style="fill:#113e74;fill-opacity:1;fill-rule:nonzero;stroke:none"
         transform="matrix(0.13333333,0,0,-0.13333333,0,151.69333)" />
      <path
         id="path3"
         d="m 2847.72,684.102 h -81.35 l 81.35,231.89 81.34,-231.89 z m 210.44,-85.262 -163.21,461 h -94.47 l -163.2,-461 c -1.34,-3.715 -16.97,-58.762 -66.2,-67.449 v -51.364 h 205.32 v 51.157 c -8.4,0.796 -30.83,4.582 -42.9,21.757 -9.24,13.137 -10.22,32.653 -1.54,55.555 h 115.76 115.76 c 8.68,-22.902 7.69,-42.418 -1.54,-55.555 -12.08,-17.175 -34.5,-20.961 -42.9,-21.757 v -51.157 h 205.32 v 51.364 c -49.23,8.687 -64.87,63.734 -66.2,67.449"
         style="fill:#113e74;fill-opacity:1;fill-rule:nonzero;stroke:none"
         transform="matrix(0.13333333,0,0,-0.13333333,0,151.69333)" />
      <path
         id="path4"
         d="m 4583.36,684.102 h -81.35 l 81.35,231.89 81.35,-231.89 z m 210.44,-85.262 -163.21,461 h -94.47 l -163.2,-461 c -1.34,-3.715 -16.97,-58.762 -66.2,-67.449 v -51.364 h 205.32 v 51.157 c -8.4,0.796 -30.82,4.582 -42.9,21.757 -9.24,13.137 -10.22,32.653 -1.54,55.555 h 115.76 115.76 c 8.68,-22.902 7.69,-42.418 -1.54,-55.555 -12.08,-17.175 -34.5,-20.961 -42.9,-21.757 V 480.027 H 4860 v 51.364 c -49.23,8.687 -64.87,63.734 -66.2,67.449"
         style="fill:#113e74;fill-opacity:1;fill-rule:nonzero;stroke:none"
         transform="matrix(0.13333333,0,0,-0.13333333,0,151.69333)" />
      <path
         id="path5"
         d="m 3496.57,549.949 h -57.36 c -7.82,0 -14.17,6.344 -14.17,14.168 v 413.676 c 0,7.828 6.35,14.172 14.17,14.172 h 62.18 c 135.82,0 206.54,-54.652 206.54,-221.008 0,-135.824 -62.69,-221.008 -211.36,-221.008 z m 19.28,511.931 h -248.33 v -52.24 l 0.15,0.03 c 42.82,-0.05 63.34,-21.721 63.34,-47.756 V 579.223 c 0,-26.067 -20.56,-47.762 -63.49,-47.762 v -51.434 h 234.67 c 208.15,0 302.18,121.356 302.18,299.766 0,173.59 -86.8,282.087 -288.52,282.087"
         style="fill:#113e74;fill-opacity:1;fill-rule:nonzero;stroke:none"
         transform="matrix(0.13333333,0,0,-0.13333333,0,151.69333)" />
      <path
         id="path6"
         d="m 3923.26,1061.88 v -52.2 c 42.92,0 71.43,-17.028 71.43,-60.617 l 0.09,-0.11 V 592.188 l -0.09,-0.11 c 0,-43.594 -28.51,-60.617 -71.43,-60.617 v -51.434 h 240.29 v 51.434 l -26.67,2.769 c -27.63,6.333 -44.76,24.106 -44.76,57.848 v 356.985 c 0,38.015 21.69,55.817 55.72,59.747 l 0.94,0.1 c 4.71,0.5 9.63,0.77 14.77,0.77 v 0.77 50.66 0.77 h -240.29"
         style="fill:#113e74;fill-opacity:1;fill-rule:nonzero;stroke:none"
         transform="matrix(0.13333333,0,0,-0.13333333,0,151.69333)" />
      <path
         id="path7"
         d="m 2359.61,649.605 -8.47,-48.285 c -3.9,-22.234 -13.49,-47.976 -59.56,-54.578 -18.05,-2.316 -36.95,-3.226 -54.14,-3.226 -114.92,0 -185.64,77.156 -185.64,230.648 0,147.078 74.74,224.227 191.27,224.227 16.73,0 32.87,-1.586 47.92,-4.157 0.24,-0.035 0.46,-0.082 0.7,-0.117 2.73,-0.472 5.39,-1.008 8.05,-1.543 37.52,-8.59 46.19,-31.457 49.79,-51.98 l 8.47,-48.289 h 68.3 v 135.825 c -41.79,27.32 -110.09,44.2 -179.21,44.2 -196.1,0 -293.34,-126.982 -293.34,-298.166 0,-182.426 80.36,-303.781 278.07,-303.781 73.14,0 151.09,14.469 196.09,43.398 v 132.602 3.222 h -68.3"
         style="fill:#113e74;fill-opacity:1;fill-rule:nonzero;stroke:none"
         transform="matrix(0.13333333,0,0,-0.13333333,0,151.69333)" />
      <path
         id="path8"
         d="m 1442.58,119.051 c -3.64,-8.903 -8.85,-16.531 -15.63,-22.8791 -6.79,-6.3633 -14.96,-11.3203 -24.54,-14.8828 -9.57,-3.5586 -20.21,-5.3399 -31.92,-5.3399 -11.86,0 -22.53,1.7813 -32.03,5.3399 -9.49,3.5625 -17.54,8.5195 -24.15,14.8828 -6.61,6.3481 -11.7,13.9761 -15.26,22.8791 -3.55,8.898 -5.33,18.765 -5.33,29.621 v 112.125 h 43.22 V 152.23 c 0,-4.917 0.64,-9.578 1.9,-13.988 1.28,-4.402 3.22,-8.344 5.85,-11.82 2.63,-3.473 6.11,-6.231 10.43,-8.262 4.32,-2.039 9.53,-3.051 15.64,-3.051 6.1,0 11.31,1.012 15.63,3.051 4.32,2.031 7.85,4.789 10.55,8.262 2.71,3.476 4.67,7.418 5.85,11.82 1.19,4.41 1.78,9.071 1.78,13.988 v 108.567 h 43.48 V 148.672 c 0,-10.856 -1.82,-20.723 -5.47,-29.621"
         style="fill:#113e74;fill-opacity:1;fill-rule:nonzero;stroke:none"
         transform="matrix(0.13333333,0,0,-0.13333333,0,151.69333)" />
      <path
         id="path9"
         d="M 1827.16,80.7813 1754.7,198.508 h -0.76 l 1.01,-117.7267 h -42.22 V 260.797 h 49.6 l 72.2,-117.465 h 0.76 l -1.01,117.465 h 42.21 V 80.7813 h -49.33"
         style="fill:#113e74;fill-opacity:1;fill-rule:nonzero;stroke:none"
         transform="matrix(0.13333333,0,0,-0.13333333,0,151.69333)" />
      <path
         id="path10"
         d="M 2143.2,80.7813 V 260.797 h 43.73 V 80.7813 h -43.73"
         style="fill:#113e74;fill-opacity:1;fill-rule:nonzero;stroke:none"
         transform="matrix(0.13333333,0,0,-0.13333333,0,151.69333)" />
      <path
         id="path11"
         d="m 2542.91,80.7813 h -43.48 l -68.15,180.0157 h 48.81 L 2521.8,133.16 h 1.02 l 41.44,127.637 h 48.06 L 2542.91,80.7813"
         style="fill:#113e74;fill-opacity:1;fill-rule:nonzero;stroke:none"
         transform="matrix(0.13333333,0,0,-0.13333333,0,151.69333)" />
      <path
         id="path12"
         d="M 2856.67,80.7813 V 260.797 h 121.02 v -36.609 h -79.08 v -34.075 h 74.76 v -34.832 h -74.76 V 117.91 h 83.66 V 80.7813 h -125.6"
         style="fill:#113e74;fill-opacity:1;fill-rule:nonzero;stroke:none"
         transform="matrix(0.13333333,0,0,-0.13333333,0,151.69333)" />
      <path
         id="path13"
         d="m 3335.18,205.621 c 0,4.238 -0.9,7.672 -2.68,10.305 -1.79,2.625 -4.09,4.656 -6.89,6.101 -2.82,1.438 -5.98,2.414 -9.46,2.918 -3.49,0.512 -6.86,0.766 -10.09,0.766 h -23.25 v -41.953 h 20.69 c 3.58,0 7.25,0.297 10.99,0.887 3.75,0.593 7.16,1.656 10.22,3.183 3.06,1.524 5.58,3.727 7.53,6.61 1.97,2.878 2.94,6.613 2.94,11.183 z m 1.78,-124.8397 -39.08,71.4487 h -14.82 V 80.7813 H 3240.6 V 260.797 h 68.66 c 8.63,0 17.06,-0.887 25.29,-2.664 8.21,-1.781 15.59,-4.793 22.12,-9.028 6.52,-4.242 11.73,-9.835 15.64,-16.785 3.89,-6.949 5.85,-15.597 5.85,-25.933 0,-12.203 -3.31,-22.461 -9.93,-30.762 -6.61,-8.312 -15.75,-14.242 -27.46,-17.801 l 47.05,-77.0427 h -50.86"
         style="fill:#113e74;fill-opacity:1;fill-rule:nonzero;stroke:none"
         transform="matrix(0.13333333,0,0,-0.13333333,0,151.69333)" />
      <path
         id="path14"
         d="m 3733.87,214.016 c -3.73,4.746 -8.61,8.519 -14.62,11.316 -6.02,2.797 -11.82,4.195 -17.41,4.195 -2.88,0 -5.82,-0.257 -8.78,-0.765 -2.97,-0.508 -5.64,-1.489 -8.01,-2.922 -2.37,-1.445 -4.36,-3.305 -5.97,-5.598 -1.62,-2.285 -2.42,-5.207 -2.42,-8.765 0,-3.051 0.64,-5.598 1.91,-7.629 1.26,-2.035 3.14,-3.817 5.6,-5.34 2.44,-1.528 5.38,-2.926 8.77,-4.199 3.39,-1.27 7.2,-2.582 11.44,-3.942 6.09,-2.031 12.45,-4.281 19.07,-6.734 6.61,-2.457 12.61,-5.723 18.05,-9.793 5.42,-4.07 9.92,-9.11 13.47,-15.129 3.56,-6.02 5.35,-13.52 5.35,-22.5 0,-10.34 -1.91,-19.281 -5.73,-26.82 -3.81,-7.551 -8.94,-13.7699 -15.37,-18.6918 -6.45,-4.9179 -13.82,-8.5586 -22.14,-10.9375 -8.29,-2.3711 -16.87,-3.5625 -25.67,-3.5625 -12.88,0 -25.34,2.25 -37.38,6.7422 -12.04,4.4883 -22.04,10.8867 -30,19.1996 l 28.48,28.98 c 4.41,-5.422 10.22,-9.949 17.42,-13.601 7.2,-3.649 14.36,-5.469 21.48,-5.469 3.21,0 6.36,0.34 9.41,1.019 3.04,0.68 5.72,1.782 8.01,3.309 2.28,1.531 4.11,3.562 5.46,6.101 1.36,2.54 2.04,5.59 2.04,9.149 0,3.391 -0.86,6.277 -2.54,8.652 -1.71,2.371 -4.12,4.532 -7.25,6.481 -3.14,1.949 -7.04,3.726 -11.71,5.34 -4.65,1.609 -9.95,3.343 -15.87,5.211 -5.77,1.867 -11.41,4.07 -16.92,6.613 -5.51,2.547 -10.43,5.804 -14.74,9.793 -4.34,3.976 -7.8,8.808 -10.43,14.488 -2.63,5.68 -3.94,12.59 -3.94,20.723 0,10 2.02,18.562 6.1,25.679 4.08,7.121 9.41,12.965 16.02,17.547 6.61,4.578 14.07,7.918 22.37,10.039 8.31,2.121 16.7,3.184 25.19,3.184 10.16,0 20.54,-1.867 31.13,-5.594 10.59,-3.73 19.88,-9.242 27.84,-16.527 l -27.71,-29.242"
         style="fill:#113e74;fill-opacity:1;fill-rule:nonzero;stroke:none"
         transform="matrix(0.13333333,0,0,-0.13333333,0,151.69333)" />
      <path
         id="path15"
         d="M 4018.64,80.7813 V 260.797 h 43.74 V 80.7813 h -43.74"
         style="fill:#113e74;fill-opacity:1;fill-rule:nonzero;stroke:none"
         transform="matrix(0.13333333,0,0,-0.13333333,0,151.69333)" />
      <path
         id="path16"
         d="M 4406.13,223.68 V 80.7813 h -43.47 V 223.68 h -50.85 v 37.117 h 145.18 V 223.68 h -50.86"
         style="fill:#113e74;fill-opacity:1;fill-rule:nonzero;stroke:none"
         transform="matrix(0.13333333,0,0,-0.13333333,0,151.69333)" />
      <path
         id="path17"
         d="M 4790.83,157.059 V 80.7813 h -43.47 v 76.2777 l -67.64,103.738 h 52.63 l 38.4,-66.613 38.4,66.613 H 4860 l -69.17,-103.738"
         style="fill:#113e74;fill-opacity:1;fill-rule:nonzero;stroke:none"
         transform="matrix(0.13333333,0,0,-0.13333333,0,151.69333)" />
      <path
         id="path18"
         d="m 963.012,681.215 c 0,-43.758 -3.867,-85.692 -11.504,-124.649 C 934.848,471.531 901.441,392.035 852.215,320.289 813.008,263.148 763.773,210.852 705.883,164.848 607.52,86.6797 518.543,53.8203 514.801,52.4609 l -10.426,-3.789 -10.426,3.789 c -3.738,1.3594 -92.715,34.2188 -191.082,112.3871 -57.89,46.004 -107.125,98.3 -146.328,155.441 -49.226,71.746 -82.6367,151.242 -99.2968,236.277 -7.6328,38.965 -11.5039,80.903 -11.5039,124.649 V 1091.95 H 504.375 963.012 Z M 504.375,1137.69 0,1137.68 V 681.215 C 0,634.52 4.15625,589.625 12.3555,547.77 30.2266,456.574 66.043,371.332 118.824,294.41 160.605,233.516 212.953,177.879 274.414,129.039 378.535,46.3008 474.285,10.9414 478.316,9.48047 L 504.375,0 530.441,9.48047 c 4.024,1.46093 99.778,36.82033 203.899,119.55853 61.457,48.84 113.808,104.477 155.59,165.371 52.777,76.922 88.597,162.164 106.465,253.36 8.195,41.843 12.355,86.742 12.355,133.445 v 456.465 l -504.375,0.01"
         style="fill:#113e74;fill-opacity:1;fill-rule:nonzero;stroke:none"
         transform="matrix(0.13333333,0,0,-0.13333333,0,151.69333)" />
      <path
         id="path19"
         d="m 929.926,621.543 c -1.778,-19.828 -4.508,-39.563 -8.34,-59.113 -1.086,-5.543 -2.242,-11.032 -3.461,-16.465 1.219,5.433 2.375,10.922 3.461,16.465 3.832,19.55 6.562,39.285 8.34,59.113"
         style="fill:#113e74;fill-opacity:1;fill-rule:nonzero;stroke:none"
         transform="matrix(0.13333333,0,0,-0.13333333,0,151.69333)" />
      <path
         id="path20"
         d="m 461.16,905.633 c 0,0 7.582,-2.063 13.465,0.695 5.883,2.762 11.641,11.137 11.641,11.137 0,0 -18.762,0.441 -25.106,-11.832"
         style="fill:#113e74;fill-opacity:1;fill-rule:nonzero;stroke:none"
         transform="matrix(0.13333333,0,0,-0.13333333,0,151.69333)" />
      <path
         id="path21"
         d="m 162.887,629.957 c 1.707,0.891 4.539,2.16 7.793,2.867 l -5.215,-68.332 c -0.106,-1.398 0.488,-2.762 1.59,-3.637 1.097,-0.867 2.554,-1.14 3.894,-0.718 45.098,14.183 68.84,-7.028 73.797,-12.211 v -0.317 c -33.269,13.821 -65.183,6.696 -88.285,-3.504 z m 17.929,24.57 c 42.364,12.473 60.086,-2.656 63.93,-6.73 v -88.645 c -10.996,8.395 -34.16,20.246 -70.387,10.762 z m 66.442,-117.261 c 0.07,-0.032 0.14,-0.051 0.215,-0.078 0.968,-0.372 2.031,-0.372 3,0 0.074,0.027 0.144,0.046 0.215,0.078 0.05,0.019 0.101,0.031 0.152,0.054 34.031,16.75 67.301,8.426 90.234,-2.336 l -1.844,-5.652 c -23.113,9.738 -56.148,16.695 -90.257,0.727 -34.11,15.968 -67.141,9.011 -90.258,-0.727 l -1.844,5.652 c 22.934,10.762 56.203,19.09 90.234,2.336 0.047,-0.023 0.102,-0.035 0.153,-0.054 z m 5.941,10.66 c 4.953,5.179 28.688,26.398 73.797,12.211 1.34,-0.422 2.793,-0.149 3.899,0.718 1.097,0.875 1.691,2.239 1.585,3.637 l -5.214,68.332 c 3.257,-0.707 6.093,-1.976 7.797,-2.867 l 6.425,-85.852 c -23.101,10.196 -55.011,17.325 -88.289,3.504 z m 0,99.867 c 3.895,4.121 21.629,19.187 63.93,6.734 l 6.457,-84.609 c -36.231,9.477 -59.391,-2.371 -70.387,-10.766 z M 76.2305,1061.45 V 681.215 c 0,-39.848 3.2734,-79.684 10.9375,-118.785 C 156.684,207.625 504.375,81.1211 504.375,81.1211 v 0 74.6599 c -46.824,44.145 -34.727,81.832 -18.109,103.922 6.207,8.25 5.144,23.61 -10.039,18.977 -44.075,-13.45 -51.043,-15.981 -71.821,16.633 -1.121,1.757 -0.593,4.093 1.157,5.226 6.355,4.106 21.238,13.672 32.175,20.32 14.266,8.672 9.395,21.516 24.621,34.602 15.153,13.023 30.348,25.703 30.348,25.703 0,0 2.731,-8.383 11.055,-10.648 0,0 -20.246,26.351 0.613,58.644 V 552.324 C 463.746,510.148 408.914,448.039 389.867,424.957 c -72.625,-88.023 -42.269,-91.09 -60.64,-113.355 -8.024,-9.727 -16.567,-9.567 -22.606,-7.489 -8.594,2.957 -20.629,7.86 -28.984,11.356 -6.508,2.722 -9.754,10.086 -7.321,16.707 5.629,15.297 23.122,47.457 75.946,111.476 45.414,55.039 87.656,98.848 127.164,139.743 -105.891,104.82 -159.074,166.343 -200.188,233.148 -22.961,-18.945 -35.953,-45.48 -38.375,-72.961 -26.898,2.785 -52.765,15.715 -71.336,38.223 -13.55,16.425 -21.336,35.695 -23.648,55.383 13.59,3.929 26.617,10.621 38.223,20.195 v 0 l 71.925,59.347 c 13.125,10.833 27.106,17.114 33.606,19.684 2.191,0.867 4.683,0.219 6.183,-1.598 l 42.039,-50.953 c 2.04,-2.468 2.872,-5.746 2.137,-8.859 -1.101,-4.68 -2.406,-10.32 -5.812,-13.129 l 9.136,-6.551 c 4.36,-3.125 7.676,-7.476 9.559,-12.5 8.023,-21.437 34.629,-85.183 88.555,-150.543 22.008,-26.672 44.961,-51.547 68.945,-76.699 v 111.203 c -46.824,44.141 -34.727,81.828 -18.109,103.918 6.207,8.25 5.144,23.61 -10.039,18.977 -44.075,-13.446 -51.043,-15.981 -71.821,16.636 -1.121,1.754 -0.593,4.094 1.157,5.223 6.355,4.106 21.238,13.676 32.175,20.32 14.266,8.676 9.395,21.52 24.621,34.606 15.153,13.019 30.348,25.699 30.348,25.699 0,0 2.731,-8.379 11.055,-10.648 0,0 -20.246,26.351 0.613,58.644 v 61.3 0 l -428.1445,-0.01"
         style="fill:#113e74;fill-opacity:1;fill-rule:nonzero;stroke:none"
         transform="matrix(0.13333333,0,0,-0.13333333,0,151.69333)" />
      <path
         id="path22"
         d="m 461.16,334.633 c 0,0 7.582,-2.063 13.465,0.695 5.883,2.762 11.641,11.137 11.641,11.137 0,0 -18.762,0.441 -25.106,-11.832"
         style="fill:#113e74;fill-opacity:1;fill-rule:nonzero;stroke:none"
         transform="matrix(0.13333333,0,0,-0.13333333,0,151.69333)" />
      <path
         id="path23"
         d="m 764.012,547.613 v 0.297 c 4.89,5.02 28.976,26.324 73.789,12.227 1.336,-0.426 2.804,-0.153 3.898,0.718 1.102,0.875 1.696,2.239 1.586,3.637 l -5.211,68.281 c 3.242,-0.71 6.094,-1.929 7.793,-2.816 l 6.422,-85.852 c -23.094,10.2 -55.012,17.325 -88.277,3.508 z m 86.023,-18.277 c -23.113,9.734 -56.14,16.691 -90.254,0.723 -34.109,15.968 -67.14,9.015 -90.261,-0.727 l -1.84,5.652 c 22.933,10.762 56.207,19.086 90.234,2.336 0.047,-0.023 0.102,-0.031 0.149,-0.054 0.07,-0.032 0.148,-0.051 0.218,-0.078 0.969,-0.368 2.032,-0.368 2.996,0 0.075,0.027 0.149,0.046 0.223,0.078 0.047,0.023 0.098,0.031 0.145,0.054 34.027,16.75 67.3,8.426 90.234,-2.336 z M 673.688,629.957 c 1.707,0.891 4.542,2.16 7.8,2.867 l -5.215,-68.332 c -0.105,-1.398 0.489,-2.762 1.59,-3.637 1.094,-0.871 2.563,-1.144 3.895,-0.718 45.097,14.195 68.832,-7.02 73.793,-12.207 v -0.317 c -33.27,13.817 -65.188,6.692 -88.285,-3.508 z m 17.937,24.57 c 42.355,12.465 60.074,-2.648 63.926,-6.726 v -88.649 c -10.992,8.395 -34.153,20.243 -70.383,10.762 z m 72.387,-6.734 c 3.894,4.125 21.629,19.184 63.922,6.734 l 6.461,-84.609 c -36.235,9.477 -59.391,-2.367 -70.383,-10.762 z M 504.375,1061.46 v -61.3 c 0,0 0,0 0.004,0 0,0 7.863,-16.664 18.242,-24.082 10.379,-7.414 13.535,-22.496 13.535,-22.496 0,0 37.496,2.156 61.305,-45.918 l -10.207,2.941 c 0,0 27.648,-23.804 27.648,-63.171 0,0 -2.41,1.859 -7.16,3.238 0,0 7.16,-28.043 -5.64,-49.223 -55.661,-2.101 -80.454,-25.082 -97.727,-74.668 v 0.004 -111.203 c 0.004,-0.004 0.004,-0.008 0.008,-0.008 23.988,25.156 46.941,50.035 68.953,76.707 53.926,65.36 80.527,129.106 88.555,150.543 1.879,5.024 5.199,9.375 9.558,12.5 l 9.137,6.551 c -3.406,2.809 -4.711,8.449 -5.816,13.129 -0.735,3.113 0.101,6.391 2.14,8.859 l 42.039,50.953 c 1.5,1.817 3.992,2.465 6.184,1.598 6.5,-2.57 20.48,-8.851 33.605,-19.684 l 71.926,-59.347 v 0 c 11.606,-9.574 24.633,-16.266 38.223,-20.195 -2.313,-19.688 -10.098,-38.958 -23.649,-55.383 -18.57,-22.508 -44.437,-35.438 -71.336,-38.223 -2.422,27.481 -15.418,54.016 -38.379,72.961 C 694.414,749.738 641.23,688.215 535.34,583.395 574.848,542.5 617.09,498.691 662.504,443.652 c 52.82,-64.019 70.312,-96.179 75.941,-111.476 2.438,-6.621 -0.808,-13.985 -7.316,-16.707 -8.359,-3.496 -20.395,-8.399 -28.984,-11.356 -6.04,-2.078 -14.582,-2.238 -22.61,7.489 -18.367,22.265 11.988,25.332 -60.64,113.355 -19.043,23.082 -73.883,85.199 -114.512,127.371 -0.004,0 -0.004,-0.004 -0.008,-0.004 V 429.16 c 0,0 0,0 0.004,0 0,0 7.863,-16.668 18.242,-24.082 10.379,-7.418 13.535,-22.5 13.535,-22.5 0,0 37.496,2.156 61.305,-45.918 l -10.207,2.945 c 0,0 27.648,-23.804 27.648,-63.171 0,0 -2.41,1.859 -7.16,3.234 0,0 7.16,-28.043 -5.64,-49.219 -55.661,-2.101 -80.454,-25.082 -97.727,-74.668 v 0 -74.6599 c 0,0 0.203,0.0703 0.563,0.207 0.074,0.0235 0.16,0.0625 0.25,0.0938 0.32,0.1172 0.75,0.289 1.257,0.4765 0.368,0.1407 0.782,0.3008 1.243,0.4922 0.445,0.168 0.929,0.3594 1.46,0.5703 0.493,0.1993 1.02,0.4102 1.582,0.6407 0.606,0.25 1.25,0.5078 1.938,0.789 2.195,0.8985 4.801,2 7.781,3.2891 1.199,0.5195 2.453,1.0703 3.77,1.6484 1.039,0.461 2.113,0.9414 3.222,1.4414 2.864,1.2891 5.93,2.6914 9.243,4.25 0.304,0.1407 0.629,0.3008 0.937,0.4414 3.777,1.7891 7.809,3.7305 12.106,5.8671 0.078,0.043 0.16,0.082 0.238,0.121 3.457,1.723 7.086,3.563 10.848,5.512 4.167,2.168 8.515,4.469 13.023,6.918 0.719,0.402 1.437,0.781 2.164,1.18 2.652,1.461 5.363,2.972 8.117,4.519 1.598,0.902 3.211,1.82 4.844,2.762 3.012,1.719 6.066,3.5 9.184,5.34 0.117,0.07 0.226,0.129 0.339,0.199 3.286,1.949 6.645,3.98 10.036,6.051 1.625,1 3.261,2.011 4.906,3.031 2.371,1.477 4.765,2.984 7.179,4.523 15.266,9.735 31.375,20.739 47.918,33.086 2.637,1.969 5.286,3.973 7.942,6.008 1.293,0.992 2.59,1.992 3.89,3.004 6.145,4.773 12.333,9.727 18.543,14.875 0.411,0.34 0.817,0.668 1.231,1.008 0.316,0.265 0.637,0.543 0.953,0.805 6.875,5.742 13.773,11.699 20.668,17.902 0.309,0.273 0.613,0.562 0.922,0.84 11.383,10.273 22.75,21.183 33.976,32.758 0.739,0.757 1.473,1.519 2.207,2.285 15.032,15.633 29.782,32.465 43.965,50.523 3.227,4.11 6.434,8.262 9.598,12.5 0.074,0.106 0.152,0.203 0.23,0.309 0.586,0.785 1.165,1.593 1.747,2.383 6.976,9.453 13.781,19.226 20.378,29.32 5.219,7.98 10.325,16.144 15.262,24.535 4.899,8.32 9.649,16.844 14.231,25.574 4.582,8.731 9,17.664 13.23,26.809 8.461,18.289 16.18,37.41 23,57.394 6.824,19.989 12.75,40.832 17.629,62.563 1.219,5.433 2.375,10.922 3.461,16.465 3.832,19.55 6.562,39.285 8.34,59.113 1.777,19.828 2.594,39.746 2.594,59.672 v 380.235 l -428.145,0.01"
         style="fill:#c41425;fill-opacity:1;fill-rule:nonzero;stroke:none"
         transform="matrix(0.13333333,0,0,-0.13333333,0,151.69333)" />
      <path
         id="path24"
         d="m 932.52,681.215 c 0,-19.926 -0.817,-39.844 -2.594,-59.672 -1.778,-19.828 -4.508,-39.563 -8.34,-59.113 -1.086,-5.543 -2.242,-11.032 -3.461,-16.465 -4.879,-21.731 -10.805,-42.574 -17.629,-62.563 -6.82,-19.984 -14.539,-39.105 -23,-57.394 -4.23,-9.145 -8.648,-18.078 -13.23,-26.809 -4.582,-8.73 -9.332,-17.254 -14.231,-25.574 C 725.164,161.449 504.375,81.1211 504.375,81.1211 v 0 c 0,0 -347.691,126.5039 -417.207,481.3089 -7.6641,39.101 -10.9375,78.937 -10.9375,118.785 v 380.235 l 428.1445,0.01 v 0 l 428.145,-0.01 z M 504.375,1091.95 H 45.7383 V 681.215 c 0,-43.746 3.8711,-85.684 11.5039,-124.649 C 73.9023,471.531 107.313,392.035 156.539,320.289 195.742,263.148 244.977,210.852 302.867,164.848 401.234,86.6797 490.211,53.8203 493.949,52.4609 l 10.426,-3.789 10.426,3.789 c 3.742,1.3594 92.719,34.2188 191.082,112.3871 57.89,46.004 107.125,98.3 146.332,155.441 49.226,71.746 82.633,151.242 99.293,236.277 7.637,38.957 11.504,80.891 11.504,124.649 V 1091.95 H 504.375"
         style="fill:#ffffff;fill-opacity:1;fill-rule:nonzero;stroke:none"
         transform="matrix(0.13333333,0,0,-0.13333333,0,151.69333)" />
      <path
         id="path25"
         d="m 504.383,615.574 c -0.004,0 -0.004,0.004 -0.008,0.008 -23.984,25.152 -46.937,50.027 -68.945,76.699 -53.926,65.36 -80.532,129.106 -88.555,150.543 -1.883,5.024 -5.199,9.375 -9.559,12.5 l -9.136,6.551 c 3.406,2.809 4.711,8.449 5.812,13.129 0.735,3.113 -0.097,6.391 -2.137,8.859 l -42.039,50.953 c -1.5,1.817 -3.992,2.465 -6.183,1.598 -6.5,-2.57 -20.481,-8.851 -33.606,-19.684 l -71.925,-59.347 v 0 c -11.606,-9.574 -24.633,-16.266 -38.223,-20.195 2.312,-19.688 10.098,-38.958 23.648,-55.383 18.571,-22.508 44.438,-35.438 71.336,-38.223 2.422,27.481 15.414,54.016 38.375,72.961 41.114,-66.805 94.297,-128.328 200.188,-233.148 -39.508,-40.895 -81.75,-84.704 -127.164,-139.743 -52.824,-64.019 -70.317,-96.179 -75.946,-111.476 -2.433,-6.621 0.813,-13.985 7.321,-16.707 8.355,-3.496 20.39,-8.399 28.984,-11.356 6.039,-2.078 14.582,-2.238 22.606,7.489 18.371,22.265 -11.985,25.332 60.64,113.355 19.047,23.082 73.879,85.191 114.508,127.367 0.004,0 0.004,0.004 0.008,0.004 40.629,-42.172 95.469,-104.289 114.512,-127.371 72.628,-88.023 42.273,-91.09 60.64,-113.355 8.028,-9.727 16.57,-9.567 22.61,-7.489 8.589,2.957 20.625,7.86 28.984,11.356 6.508,2.722 9.754,10.086 7.316,16.707 -5.629,15.297 -23.121,47.457 -75.941,111.476 -45.414,55.039 -87.656,98.848 -127.164,139.743 105.89,104.82 159.074,166.343 200.183,233.148 22.961,-18.945 35.957,-45.48 38.379,-72.961 26.899,2.785 52.766,15.715 71.336,38.223 13.551,16.425 21.336,35.695 23.649,55.383 -13.59,3.929 -26.617,10.621 -38.223,20.195 v 0 l -71.926,59.347 c -13.125,10.833 -27.105,17.114 -33.605,19.684 -2.192,0.867 -4.684,0.219 -6.184,-1.598 L 676.91,883.863 c -2.039,-2.468 -2.875,-5.746 -2.14,-8.859 1.105,-4.68 2.41,-10.32 5.816,-13.129 l -9.137,-6.551 c -4.359,-3.125 -7.679,-7.476 -9.558,-12.5 -8.028,-21.437 -34.629,-85.183 -88.555,-150.543 -22.012,-26.672 -44.965,-51.551 -68.953,-76.707"
         style="fill:#ffffff;fill-opacity:1;fill-rule:nonzero;stroke:none"
         transform="matrix(0.13333333,0,0,-0.13333333,0,151.69333)" />
      <path
         id="path26"
         d="m 253.199,547.609 c 33.278,13.821 65.188,6.692 88.289,-3.504 l -6.425,85.852 c -1.704,0.891 -4.54,2.16 -7.797,2.867 l 5.214,-68.332 c 0.106,-1.398 -0.488,-2.762 -1.585,-3.637 -1.106,-0.867 -2.559,-1.14 -3.899,-0.718 -45.109,14.187 -68.844,-7.032 -73.797,-12.211 v -0.317"
         style="fill:#ffffff;fill-opacity:1;fill-rule:nonzero;stroke:none"
         transform="matrix(0.13333333,0,0,-0.13333333,0,151.69333)" />
      <path
         id="path27"
         d="m 339.23,529.332 1.844,5.652 c -22.933,10.762 -56.203,19.086 -90.234,2.336 -0.051,-0.023 -0.102,-0.035 -0.152,-0.054 -0.071,-0.032 -0.141,-0.051 -0.215,-0.078 -0.969,-0.372 -2.032,-0.372 -3,0 -0.075,0.027 -0.145,0.046 -0.215,0.078 -0.051,0.019 -0.106,0.031 -0.153,0.054 -34.031,16.754 -67.3,8.426 -90.234,-2.336 l 1.844,-5.652 c 23.117,9.738 56.148,16.695 90.258,0.727 34.109,15.968 67.144,9.011 90.257,-0.727"
         style="fill:#ffffff;fill-opacity:1;fill-rule:nonzero;stroke:none"
         transform="matrix(0.13333333,0,0,-0.13333333,0,151.69333)" />
      <path
         id="path28"
         d="m 244.746,647.797 c -3.844,4.074 -21.566,19.203 -63.93,6.73 l -6.457,-84.613 c 36.227,9.484 59.391,-2.367 70.387,-10.762 v 88.645"
         style="fill:#ffffff;fill-opacity:1;fill-rule:nonzero;stroke:none"
         transform="matrix(0.13333333,0,0,-0.13333333,0,151.69333)" />
      <path
         id="path29"
         d="m 323.586,569.918 -6.457,84.609 c -42.301,12.453 -60.035,-2.613 -63.93,-6.734 v -88.641 c 10.996,8.395 34.156,20.243 70.387,10.766"
         style="fill:#ffffff;fill-opacity:1;fill-rule:nonzero;stroke:none"
         transform="matrix(0.13333333,0,0,-0.13333333,0,151.69333)" />
      <path
         id="path30"
         d="m 162.887,629.957 -6.426,-85.852 c 23.102,10.2 55.016,17.325 88.285,3.504 v 0.317 c -4.957,5.183 -28.699,26.394 -73.797,12.211 -1.34,-0.422 -2.797,-0.149 -3.894,0.718 -1.102,0.875 -1.696,2.239 -1.59,3.637 l 5.215,68.332 c -3.254,-0.707 -6.086,-1.976 -7.793,-2.867"
         style="fill:#ffffff;fill-opacity:1;fill-rule:nonzero;stroke:none"
         transform="matrix(0.13333333,0,0,-0.13333333,0,151.69333)" />
      <path
         id="path31"
         d="m 755.551,647.801 c -3.852,4.078 -21.571,19.191 -63.926,6.726 l -6.457,-84.613 c 36.23,9.481 59.391,-2.367 70.383,-10.762 v 88.649"
         style="fill:#ffffff;fill-opacity:1;fill-rule:nonzero;stroke:none"
         transform="matrix(0.13333333,0,0,-0.13333333,0,151.69333)" />
      <path
         id="path32"
         d="m 761.645,537.32 c -0.047,-0.023 -0.098,-0.031 -0.145,-0.054 -0.074,-0.032 -0.148,-0.051 -0.223,-0.078 -0.964,-0.368 -2.027,-0.368 -2.996,0 -0.07,0.027 -0.148,0.046 -0.218,0.078 -0.047,0.023 -0.102,0.031 -0.149,0.054 -34.027,16.75 -67.301,8.426 -90.234,-2.336 l 1.84,-5.652 c 23.121,9.742 56.152,16.695 90.261,0.727 34.114,15.968 67.141,9.011 90.254,-0.723 l 1.844,5.648 c -22.934,10.762 -56.207,19.086 -90.234,2.336"
         style="fill:#ffffff;fill-opacity:1;fill-rule:nonzero;stroke:none"
         transform="matrix(0.13333333,0,0,-0.13333333,0,151.69333)" />
      <path
         id="path33"
         d="m 673.688,629.957 -6.422,-85.852 c 23.097,10.2 55.015,17.325 88.285,3.508 v 0.317 c -4.961,5.187 -28.696,26.402 -73.793,12.207 -1.332,-0.426 -2.801,-0.153 -3.895,0.718 -1.101,0.875 -1.695,2.239 -1.59,3.637 l 5.215,68.332 c -3.258,-0.707 -6.093,-1.976 -7.8,-2.867"
         style="fill:#ffffff;fill-opacity:1;fill-rule:nonzero;stroke:none"
         transform="matrix(0.13333333,0,0,-0.13333333,0,151.69333)" />
      <path
         id="path34"
         d="m 834.395,569.918 -6.461,84.609 c -42.293,12.45 -60.028,-2.609 -63.922,-6.734 v -88.637 c 10.992,8.395 34.148,20.239 70.383,10.762"
         style="fill:#ffffff;fill-opacity:1;fill-rule:nonzero;stroke:none"
         transform="matrix(0.13333333,0,0,-0.13333333,0,151.69333)" />
      <path
         id="path35"
         d="m 838.074,632.773 5.211,-68.281 c 0.11,-1.398 -0.484,-2.762 -1.586,-3.637 -1.094,-0.871 -2.562,-1.144 -3.898,-0.718 -44.813,14.097 -68.899,-7.207 -73.789,-12.227 v -0.297 c 33.265,13.817 65.183,6.692 88.277,-3.508 l -6.422,85.852 c -1.699,0.887 -4.551,2.106 -7.793,2.816"
         style="fill:#ffffff;fill-opacity:1;fill-rule:nonzero;stroke:none"
         transform="matrix(0.13333333,0,0,-0.13333333,0,151.69333)" />
      <path
         id="path36"
         d="m 474.625,906.328 c -5.883,-2.758 -13.465,-0.695 -13.465,-0.695 6.344,12.273 25.106,11.832 25.106,11.832 0,0 -5.758,-8.375 -11.641,-11.137 z m 29.137,35.188 c -8.324,2.269 -11.055,10.648 -11.055,10.648 0,0 -15.195,-12.68 -30.348,-25.699 -15.226,-13.086 -10.355,-25.93 -24.621,-34.606 -10.937,-6.644 -25.82,-16.214 -32.175,-20.32 -1.75,-1.129 -2.278,-3.469 -1.157,-5.223 20.778,-32.617 27.746,-30.082 71.821,-16.636 15.183,4.633 16.246,-10.727 10.039,-18.977 -16.618,-22.09 -28.715,-59.777 18.109,-103.918 v -0.004 c 17.273,49.586 42.066,72.567 97.727,74.668 12.8,21.18 5.64,49.223 5.64,49.223 4.75,-1.379 7.16,-3.238 7.16,-3.238 0,39.367 -27.648,63.171 -27.648,63.171 l 10.207,-2.941 c -23.809,48.074 -61.305,45.918 -61.305,45.918 0,0 -3.156,15.082 -13.535,22.496 -10.379,7.418 -18.242,24.082 -18.242,24.082 -0.004,0 -0.004,0 -0.004,0 -20.859,-32.293 -0.613,-58.644 -0.613,-58.644"
         style="fill:#ffffff;fill-opacity:1;fill-rule:nonzero;stroke:none"
         transform="matrix(0.13333333,0,0,-0.13333333,0,151.69333)" />
      <path
         id="path37"
         d="m 474.625,335.328 c -5.883,-2.758 -13.465,-0.695 -13.465,-0.695 6.344,12.273 25.106,11.832 25.106,11.832 0,0 -5.758,-8.375 -11.641,-11.137 z m 112.629,4.277 10.207,-2.945 c -23.809,48.074 -61.305,45.918 -61.305,45.918 0,0 -3.156,15.082 -13.535,22.5 -10.379,7.414 -18.242,24.082 -18.242,24.082 -0.004,0 -0.004,0 -0.004,0 -20.859,-32.293 -0.613,-58.644 -0.613,-58.644 -8.324,2.265 -11.055,10.648 -11.055,10.648 0,0 -15.195,-12.68 -30.348,-25.703 -15.226,-13.086 -10.355,-25.93 -24.621,-34.602 -10.937,-6.648 -25.82,-16.214 -32.175,-20.32 -1.75,-1.133 -2.278,-3.469 -1.157,-5.226 20.778,-32.614 27.746,-30.083 71.821,-16.633 15.183,4.633 16.246,-10.727 10.039,-18.977 -16.618,-22.09 -28.715,-59.777 18.109,-103.922 v 0 c 17.273,49.586 42.066,72.567 97.727,74.668 12.8,21.176 5.64,49.219 5.64,49.219 4.75,-1.375 7.16,-3.234 7.16,-3.234 0,39.367 -27.648,63.171 -27.648,63.171"
         style="fill:#ffffff;fill-opacity:1;fill-rule:nonzero;stroke:none"
         transform="matrix(0.13333333,0,0,-0.13333333,0,151.69333)" />
    </g>
  </g>
</svg>
